<?xml version="1.0" standalone="no"?>
<!DOCTYPE svg PUBLIC "-//W3C//DTD SVG 1.1//EN" "http://www.w3.org/Graphics/SVG/1.1/DTD/svg11.dtd" >
<svg xmlns="http://www.w3.org/2000/svg">
<metadata>
Created by FontPrep 20130207 at Tue Jul  9 11:12:20 2013
 By lifu
Copyright (c) Christian Schwartz, 2007. All rights reserved.
</metadata>
<defs>
<font id="d370823948dfdaffb204b30c04a0c530" >
  <font-face 
    font-family=".-Semibold"
    font-weight="700"
    font-stretch="normal"
    units-per-em="2048"
    panose-1="2 11 7 3 4 0 0 2 0 4"
    ascent="1638"
    descent="-410"
    x-height="1079"
    cap-height="1434"
    bbox="-393 -358 2402 1899"
    underline-thickness="102"
    underline-position="-103"
    unicode-range="U+0020-FB02"
  />
<missing-glyph horiz-adv-x="791" 
 />
    <glyph glyph-name=".notdef" horiz-adv-x="791" 
 />
    <glyph glyph-name=".null" horiz-adv-x="0" 
 />
    <glyph glyph-name="nonmarkingreturn" horiz-adv-x="682" 
 />
    <glyph glyph-name="space" unicode=" " horiz-adv-x="614" 
 />
    <glyph glyph-name="exclam" unicode="!" horiz-adv-x="616" 
d="M307 -14q-40 0 -75 14.5t-61 39.5t-41 59t-15 73t15 73t41 59t61 39.5t75 14.5t75 -14.5t61.5 -39.5t41.5 -59t15 -73t-15 -73t-41.5 -59t-61.5 -39.5t-75 -14.5zM113 1434h391v-215l-76 -773h-242l-73 773v215z" />
    <glyph glyph-name="quotedbl" unicode="&#x22;" horiz-adv-x="829" 
d="M457 1434h323v-174l-51 -322h-221l-51 322v174zM49 1434h324v-174l-51 -322h-222l-51 322v174z" />
    <glyph glyph-name="numbersign" unicode="#" 
d="M516 645h172l27 193h-172zM158 1092h182l51 342h240l-51 -342h172l51 342h239l-51 -342h148v-254h-185l-26 -193h145v-254h-182l-57 -391h-240l57 391h-172l-57 -391h-240l58 391h-148v254h184l27 193h-145v254z" />
    <glyph glyph-name="dollar" unicode="$" 
d="M401 1051q0 -47 27.5 -74.5t83.5 -48.5v250q-111 -33 -111 -127zM786 391q0 56 -26.5 85.5t-79.5 47.5v-264q106 37 106 131zM1047 1087h-146q-87 80 -203 101v-316q242 -66 337 -157t95 -279q0 -286 -170 -357t-280 -83v-205h-186v199q-237 11 -400 112v271h148
q100 -110 252 -127v332q-210 61 -312 154.5t-102 281.5q0 187 115.5 295t316.5 131v131h186v-127q191 -14 349 -101v-256z" />
    <glyph glyph-name="percent" unicode="%" horiz-adv-x="1638" 
d="M998.5 654.5q101.5 99.5 248.5 99.5t249.5 -99t102.5 -284.5t-103.5 -287t-249.5 -101.5t-247.5 102t-101.5 286.5t101.5 284zM1145 366q1 -196 103 -196t102 196t-102 197q-102 -1 -103 -197zM1202 1493h238l-1010 -1563h-237zM142.5 1352.5q101.5 99.5 248.5 99.5
t248.5 -99.5t101.5 -284.5t-101.5 -285.5t-248.5 -100.5t-248.5 100.5t-101.5 285.5t101.5 284.5zM289 1065q1 -197 103 -197t102 197t-102 197t-103 -197z" />
    <glyph glyph-name="ampersand" unicode="&#x26;" horiz-adv-x="1458" 
d="M408 453q0 -147 84.5 -179t156.5 -32t144 53l-306 340q-79 -72 -79 -182zM41 410q0 263 295 403q-66 115 -66 223q0 200 130 308t355 108t351 -90v-248h-145q-66 66 -177 66q-63 0 -101 -33t-38 -96t38.5 -109t64.5 -74l260 -295q67 166 77 293h291v-100
q-48 -222 -170 -420l224 -254v-92h-371l-92 100q-165 -116 -408 -116t-380.5 114t-137.5 312z" />
    <glyph glyph-name="quotesingle" unicode="'" horiz-adv-x="422" 
d="M49 1434h324v-174l-51 -322h-222l-51 322v174z" />
    <glyph glyph-name="parenleft" unicode="(" horiz-adv-x="721" 
d="M403 717q0 -491 277 -594v-223h-105q-352 95 -435 358t-83 425t21 266.5t74 224.5t169.5 213.5t253.5 130.5h105v-228q-190 -67 -233.5 -249.5t-43.5 -323.5z" />
    <glyph glyph-name="parenright" unicode=")" horiz-adv-x="721" 
d="M315 717q0 259 -78.5 395t-197.5 178v228h106q350 -97 434.5 -353t84.5 -450q0 -360 -149 -557.5t-370 -257.5h-106v223q276 103 276 594z" />
    <glyph glyph-name="asterisk" unicode="*" horiz-adv-x="823" 
d="M281 1434h262v-101l-58 -157l129 98l97 31l80 -248l-95 -33l-153 6l133 -90l57 -80l-213 -151l-59 82l-49 159l-52 -159l-59 -82l-213 151l59 80l134 90l-154 -6l-96 33l82 248l96 -31l125 -98l-53 157v101z" />
    <glyph glyph-name="plus" unicode="+" 
d="M770 565v-368h-305v368h-346v285h346v368h305v-368h344v-285h-344z" />
    <glyph glyph-name="comma" unicode="," horiz-adv-x="614" 
d="M252 -9q0 22 -6.5 30.5t-17 15t-62 32t-51.5 128.5q0 70 53 115.5t162 45.5t141.5 -83.5t32.5 -141.5q0 -168 -95.5 -259t-293.5 -110v152q66 9 101.5 31t35.5 44z" />
    <glyph glyph-name="hyphen" unicode="-" horiz-adv-x="627" 
d="M61 739h504v-280h-504v280z" />
    <glyph glyph-name="period" unicode="." horiz-adv-x="614" 
d="M307 -14q-40 0 -75 14.5t-61 39.5t-41 59t-15 73t15 73t41 59t61 39.5t75 14.5t75 -14.5t61.5 -39.5t41.5 -59t15 -73t-15 -73t-41.5 -59t-61.5 -39.5t-75 -14.5z" />
    <glyph glyph-name="slash" unicode="/" horiz-adv-x="754" 
d="M4 -100v71l473 1547h266v-72l-473 -1546h-266z" />
    <glyph glyph-name="zero" unicode="0" 
d="M614 244q44 0 76.5 24t53.5 78.5t31.5 143.5t10.5 219t-10.5 219t-31.5 144t-53.5 79.5t-76.5 24.5t-76 -24.5t-53.5 -79.5t-32 -144t-10.5 -219t10.5 -219t32 -143.5t53.5 -78.5t76 -24zM614 -20q-119 0 -222 43t-178.5 133.5t-119 229.5t-43.5 331t44 331t120.5 229.5
t179 133.5t219.5 43t219.5 -43t179 -133.5t121 -229.5t44.5 -331t-43.5 -331t-119.5 -229.5t-179 -133.5t-222 -43z" />
    <glyph glyph-name="one" unicode="1" 
d="M508 0v1047l-248 -136h-82v273l445 250h278v-1434h-393z" />
    <glyph glyph-name="two" unicode="2" 
d="M590 1452q520 0 520 -420q0 -142 -82 -260t-256 -270l-233 -207h571v-295h-1010v299l394 373q124 117 175.5 192.5t51.5 145.5q0 71 -44 110t-134 39q-141 0 -264 -96h-138v262q201 127 449 127z" />
    <glyph glyph-name="three" unicode="3" 
d="M1114 408q0 -203 -160 -314.5t-426 -111.5t-430 102v256h144q89 -86 251 -86t197 66t35 110q0 87 -54 126.5t-169 39.5h-115v256h102q230 0 230 162q0 75 -45 115t-133 40q-145 0 -258 -79h-136v243q191 119 441 119q360 0 431 -142.5t71 -242.5q0 -251 -269 -326v-8
q293 -47 293 -325z" />
    <glyph glyph-name="four" unicode="4" 
d="M330 549h323v465h-8l-315 -457v-8zM645 0v299h-569v293l590 842h366v-885h144v-250h-144v-299h-387z" />
    <glyph glyph-name="five" unicode="5" 
d="M739 536.5q0 122.5 -148 122.5t-229 -81h-219v856h901v-295h-628v-293h6q94 74 260 74q308 0 375 -167t67 -283q0 -228 -164 -358t-428 -130t-430 98v264h142q96 -88 260 -88t199.5 79t35.5 201.5z" />
    <glyph glyph-name="six" unicode="6" 
d="M811 459q0 209 -178 209q-108 0 -197 -60q9 -299 79.5 -340t119.5 -41q96 0 136 59.5t40 172.5zM444 813q119 98 312 98t309.5 -113t116.5 -329t-147 -351.5t-405 -135.5t-415.5 175.5t-157.5 535.5t187.5 559.5t521.5 199.5q198 0 334 -66v-270h-142q-69 58 -168 58
t-207 -45t-139 -316z" />
    <glyph glyph-name="seven" unicode="7" 
d="M801 1130h-695v304h1004v-324l-461 -1110h-389v123l541 999v8z" />
    <glyph glyph-name="eight" unicode="8" 
d="M614 870q78 0 119 43t41 121t-41 123t-119 45t-118.5 -45t-40.5 -123t40.5 -121t118.5 -43zM614 227q52 0 88.5 16t59.5 43.5t34 65.5t11 82t-11 82t-34 66.5t-59.5 44.5t-88.5 16t-89 -16t-60 -44.5t-34 -66.5t-11 -82t11 -82t34 -65.5t60 -43.5t89 -16zM1165 406
q0 -307 -207 -365.5t-410.5 -58.5t-345 111t-141.5 313q0 266 261 354v8q-211 74 -211 299q0 179 138.5 282t364.5 103t366 -103.5t140 -281.5q0 -225 -213 -299v-8q258 -87 258 -354z" />
    <glyph glyph-name="nine" unicode="9" 
d="M594 1206q-180 0 -180 -237q0 -205 180 -205q103 0 197 57q-9 305 -79.5 345t-117.5 40zM479 520q-309 0 -372.5 162.5t-63.5 271.5q0 221 149 359.5t398 138.5q414 0 497.5 -261t83.5 -444q0 -370 -182 -567.5t-534 -197.5q-199 0 -342 59v276h141q68 -59 176 -59
q109 0 168.5 22.5t113 84.5t70.5 243q-124 -88 -303 -88z" />
    <glyph glyph-name="colon" unicode=":" horiz-adv-x="614" 
d="M115 172q0 78 55.5 132t135.5 54t137 -53.5t57 -132.5t-57 -132.5t-137 -53.5q-81 0 -136 54t-55 132zM170.5 884.5q55.5 55.5 135.5 55.5t137 -55t57 -133t-57 -131.5t-137 -53.5t-135.5 54t-55.5 131t55.5 132.5z" />
    <glyph glyph-name="semicolon" unicode=";" horiz-adv-x="614" 
d="M170.5 884.5q55.5 55.5 135.5 55.5t137 -55t57 -133t-57 -131.5t-137 -53.5t-135.5 54t-55.5 131t55.5 132.5zM248 -2q0 24 -17 34.5t-68.5 36t-51.5 128.5q0 70 53 115.5t133 45.5q138 0 170.5 -83.5t32.5 -141.5q0 -168 -95 -259t-294 -110v152q137 18 137 82z" />
    <glyph glyph-name="less" unicode="&#x3c;" 
d="M1044 1184v-277l-489 -227v-6l489 -230v-278h-75l-789 385v248l789 385h75z" />
    <glyph glyph-name="equal" unicode="=" 
d="M156 287v272h921v-272h-921zM156 717v272h921v-272h-921z" />
    <glyph glyph-name="greater" unicode="&#x3e;" 
d="M186 166v276l488 228v6l-488 227v281h76l789 -385v-248l-789 -385h-76z" />
    <glyph glyph-name="question" unicode="?" horiz-adv-x="950" 
d="M377 -14q-40 0 -75 14.5t-61.5 39.5t-41.5 59t-15 73t15 73t41.5 59t61.5 39.5t75 14.5t75 -14.5t61 -39.5t41 -59t15 -73t-15 -73t-41 -59t-61 -39.5t-75 -14.5zM432 1452q228 0 348.5 -97.5t120.5 -274.5t-87 -255.5t-134 -113.5q-105 -78 -145 -129.5t-33 -135.5h-266
q-22 121 -1 182t50 101.5t68 78.5q94 90 130.5 139t36.5 108t-37.5 89t-99.5 30q-127 0 -211 -82h-139v251q171 109 399 109z" />
    <glyph glyph-name="at" unicode="@" horiz-adv-x="1806" 
d="M827 346q70 0 125 57l72 310q-34 12 -78 12q-86 0 -141 -84t-55 -189q0 -106 77 -106zM1495 -129q-217 -145 -601 -145q-348 0 -507 122t-251.5 255.5t-92.5 395.5t133.5 461t344 302.5t429.5 103.5q347 0 580 -181t233 -497q0 -271 -152.5 -412t-375.5 -141t-272 129
q-122 -127 -269 -127q-180 0 -216 110.5t-36 176.5t14 128t56 150t145 161t232 73t211 -86q56 74 147 74h139l-110 -488q-26 -110 86.5 -110t148 133t35.5 239q0 221 -160 351.5t-437 130.5q-276 0 -476.5 -178.5t-200.5 -509.5q0 -293 174 -436.5t470 -143.5t505 135h74
v-176z" />
    <glyph glyph-name="A" unicode="A" horiz-adv-x="1421" 
d="M526 590h297l-147 483h-4zM1384 0h-380l-101 324h-457l-96 -324h-311v92l457 1342h426l462 -1342v-92z" />
    <glyph glyph-name="B" unicode="B" horiz-adv-x="1284" 
d="M809 1020q0 158 -174 158h-135v-318h133q91 0 133.5 39t42.5 121zM645 254q197 0 197 184t-197 183h-145v-367h145zM1237 416q0 -202 -150 -309t-425 -107h-547v1434h536q269 0 401 -91t132 -284q0 -240 -258 -301v-8q311 -57 311 -334z" />
    <glyph glyph-name="C" unicode="C" horiz-adv-x="1300" 
d="M760 -18q-327 0 -516 191t-189 537t201 544t537 198q253 0 430 -102v-273h-152q-102 94 -266 94q-165 0 -256.5 -110.5t-91.5 -337.5q0 -358 123 -412.5t204 -54.5q187 0 312 125h139v-260q-190 -139 -475 -139z" />
    <glyph glyph-name="D" unicode="D" horiz-adv-x="1436" 
d="M604 264q195 0 286 104.5t91 346t-89 344t-288 102.5h-96v-897h96zM623 1434q759 0 759 -709q0 -362 -195 -543.5t-577 -181.5h-495v1434h508z" />
    <glyph glyph-name="E" unicode="E" horiz-adv-x="1190" 
d="M115 1434h987v-275h-596v-305h420v-258h-420v-330h616v-266h-1007v1434z" />
    <glyph glyph-name="F" unicode="F" horiz-adv-x="1169" 
d="M115 0v1434h993v-275h-600v-342h461v-262h-461v-555h-393z" />
    <glyph glyph-name="G" unicode="G" horiz-adv-x="1395" 
d="M760 -18q-523 0 -615 277t-92 453q0 353 198 546.5t554 193.5q194 0 288 -34t142 -56v-283h-145q-120 90 -288 90t-255.5 -106.5t-87.5 -347.5q0 -366 111.5 -418.5t197.5 -52.5t154 20v262h-170v238h542v-674q-216 -108 -534 -108z" />
    <glyph glyph-name="H" unicode="H" horiz-adv-x="1456" 
d="M115 0v1434h393v-566h440v566h393v-1434h-393v592h-440v-592h-393z" />
    <glyph glyph-name="I" unicode="I" horiz-adv-x="637" 
d="M121 0v1434h395v-1434h-395z" />
    <glyph glyph-name="J" unicode="J" horiz-adv-x="1004" 
d="M897 412q0 -430 -514 -430q-213 0 -350 86v264h135q73 -68 184 -68q152 0 152 148v1022h393v-1022z" />
    <glyph glyph-name="K" unicode="K" horiz-adv-x="1419" 
d="M115 1434h393v-584l485 584h338v-88l-416 -480l459 -778v-88h-383l-352 596l-131 -143v-453h-393v1434z" />
    <glyph glyph-name="L" unicode="L" horiz-adv-x="1130" 
d="M115 0v1434h393v-1164h563v-270h-956z" />
    <glyph glyph-name="M" unicode="M" horiz-adv-x="1804" 
d="M115 1434h514l272 -852h6l273 852h510v-1434h-385v989h-7l-321 -989h-225l-318 989h-6v-989h-313v1434z" />
    <glyph glyph-name="N" unicode="N" horiz-adv-x="1448" 
d="M115 1434h420l469 -830h6v830h323v-1434h-356l-535 940h-6v-940h-321v1434z" />
    <glyph glyph-name="O" unicode="O" horiz-adv-x="1520" 
d="M760 250q68 0 124 26.5t97 83t63.5 143.5t22.5 264.5t-83 293t-224 115.5q-219 0 -263 -172t-44 -293t22.5 -208t63.5 -143.5t97 -83t124 -26.5zM53 715q0 343 203 540t505 197t504.5 -197.5t202.5 -540t-201.5 -537.5t-506 -195t-506 195t-201.5 538z" />
    <glyph glyph-name="P" unicode="P" horiz-adv-x="1268" 
d="M506 750h119q168 0 190.5 83t22.5 133q0 106 -47 154.5t-166 48.5h-119v-419zM1227 967q0 -463 -600 -463h-119v-504h-393v1434h526q292 0 439 -114t147 -353z" />
    <glyph glyph-name="Q" unicode="Q" horiz-adv-x="1520" 
d="M760 244q142 0 224.5 114t82.5 353q0 350 -119.5 407.5t-187.5 57.5q-141 0 -224 -115.5t-83 -349.5q0 -354 119.5 -410.5t187.5 -56.5zM53 694q0 482 255 620t426 138q329 0 531.5 -197t202.5 -535t-146 -451t-230 -146v-6l424 -64v-297h-127l-668 181
q-331 89 -499.5 272t-168.5 485z" />
    <glyph glyph-name="R" unicode="R" horiz-adv-x="1348" 
d="M629 782q209 0 209 144.5t-50 192.5t-159 48h-125v-385h125zM1227 995q0 -262 -213 -383l284 -520v-92h-364l-277 526h-149v-526h-393v1434h538q286 0 430 -112t144 -327z" />
    <glyph glyph-name="S" unicode="S" horiz-adv-x="1135" 
d="M600 1180q-209 0 -209 -133q0 -67 52 -97t182 -60q260 -61 360 -159t100 -297q0 -329 -215 -390.5t-356 -61.5q-276 0 -469 114v273h145q110 -115 322 -115t211 141q0 81 -57 109t-106.5 41t-129.5 33q-190 49 -286.5 147t-96.5 301t146.5 314.5t399.5 111.5t419 -96
v-264h-142q-117 88 -270 88z" />
    <glyph glyph-name="T" unicode="T" horiz-adv-x="1235" 
d="M421 0v1161h-370v273h1133v-273h-370v-1161h-393z" />
    <glyph glyph-name="U" unicode="U" horiz-adv-x="1419" 
d="M1309 545q0 -561 -584 -561q-305 0 -460.5 145t-155.5 416v889h393v-887q0 -224 93 -251.5t153 -27.5q122 0 178.5 61t56.5 218v887h326v-889z" />
    <glyph glyph-name="V" unicode="V" horiz-adv-x="1403" 
d="M35 1434h383l305 -983h4l309 983h330v-93l-455 -1341h-422l-454 1341v93z" />
    <glyph glyph-name="W" unicode="W" horiz-adv-x="1933" 
d="M39 1434h381l192 -945h4l220 945h311l225 -945h4l187 945h331v-93l-321 -1341h-414l-194 842h-4l-195 -842h-408l-319 1341v93z" />
    <glyph glyph-name="X" unicode="X" horiz-adv-x="1395" 
d="M61 1434h390l280 -469l252 469h322v-97l-351 -600l389 -641v-96h-387l-303 514l-278 -514h-324v96l381 645l-371 596v97z" />
    <glyph glyph-name="Y" unicode="Y" horiz-adv-x="1305" 
d="M467 0v532l-438 805v97h368l287 -560h4l277 560h311v-97l-416 -794v-543h-393z" />
    <glyph glyph-name="Z" unicode="Z" horiz-adv-x="1171" 
d="M690 1161h-592v273h1014v-295l-637 -863v-8h637v-268h-1059v285l637 868v8z" />
    <glyph glyph-name="bracketleft" unicode="[" horiz-adv-x="702" 
d="M125 1518h524v-236h-190v-1147h190v-235h-524v1618z" />
    <glyph glyph-name="backslash" unicode="\" horiz-adv-x="754" 
d="M10 1518h264l476 -1547v-71h-267l-473 1546v72z" />
    <glyph glyph-name="bracketright" unicode="]" horiz-adv-x="702" 
d="M578 -100h-523v235h189v1147h-189v236h523v-1618z" />
    <glyph glyph-name="asciicircum" unicode="^" horiz-adv-x="905" 
d="M874 924h-262l-157 225h-6l-156 -225h-262v77l286 433h269l288 -433v-77z" />
    <glyph glyph-name="underscore" unicode="_" horiz-adv-x="778" 
d="M-6 -332v226h790v-226h-790z" />
    <glyph glyph-name="grave" unicode="`" horiz-adv-x="815" 
d="M102 1440h355l69 -223v-68h-215l-209 203v88z" />
    <glyph glyph-name="a" unicode="a" horiz-adv-x="1133" 
d="M551 461q-160 0 -160 -130t145 -130q68 0 136 59v191q-56 10 -121 10zM561 1096q365 0 422 -136.5t57 -236.5v-723h-200q-65 0 -98.5 24t-49.5 78q-105 -116 -309 -116q-150 0 -246 83.5t-96 243.5t114.5 245t309.5 85q103 0 207 -20v73q0 71 -41.5 104.5t-164.5 33.5
t-233 -72h-110v248q199 86 438 86z" />
    <glyph glyph-name="b" unicode="b" horiz-adv-x="1243" 
d="M467 270q106 -72 231 -32t125 287q0 246 -80 271t-138 25t-138 -35v-516zM788 1096q277 0 342.5 -191.5t65.5 -344.5q0 -290 -128.5 -433t-330.5 -143q-201 0 -319 122q-56 -106 -129 -106h-191v1434h234q85 0 110 -36t25 -157v-270q137 125 321 125z" />
    <glyph glyph-name="c" unicode="c" horiz-adv-x="1040" 
d="M416 423.5q0 -185.5 241 -185.5q120 0 205 75h123v-231q-150 -98 -369 -98q-272 0 -423.5 143.5t-151.5 405.5t164.5 412.5t433.5 150.5q200 0 342 -76v-252h-133q-76 68 -193 68q-169 0 -204 -113.5t-35 -299z" />
    <glyph glyph-name="d" unicode="d" horiz-adv-x="1243" 
d="M606 225q90 0 170 66v493q-58 37 -122 37t-149 -25.5t-85 -265.5q0 -239 70 -272t116 -33zM776 1434h234q86 0 110.5 -35.5t24.5 -157.5v-1241h-260q-39 0 -62.5 24t-34.5 89q-116 -131 -310 -131t-312.5 138t-118.5 418t132 419t313 139t284 -103v441z" />
    <glyph glyph-name="e" unicode="e" horiz-adv-x="1141" 
d="M594 870q-74 0 -119.5 -49t-58.5 -170h336q-8 175 -66 197t-92 22zM668 229q161 0 274 80h115v-219q-186 -106 -454 -106q-269 0 -415.5 145t-146.5 404q0 258 152.5 410.5t398.5 152.5q508 0 508 -543l-4 -94h-682q19 -190 108.5 -210t145.5 -20z" />
    <glyph glyph-name="f" unicode="f" horiz-adv-x="733" 
d="M510 1458q116 0 197 -31v-204h-72q-62 0 -93.5 -18t-31.5 -75v-51h184v-237h-184v-842h-369v842h-116v237h116v66q0 313 369 313z" />
    <glyph glyph-name="g" unicode="g" horiz-adv-x="1243" 
d="M503.5 798.5q-83.5 -22.5 -83.5 -243.5q0 -154 46 -211t140 -57q93 0 170 55v438q-64 41 -126 41q-63 0 -146.5 -22.5zM946 1079h199v-997q0 -211 -156 -320.5t-436 -109.5t-451 82v250h115q119 -76 272 -76t220 43.5t67 140.5v53q-112 -92 -354 -92t-308.5 181.5
t-66.5 325.5q0 274 134 405t322 131q187 0 304 -121q37 104 139 104z" />
    <glyph glyph-name="h" unicode="h" horiz-adv-x="1233" 
d="M848 1096q293 0 293 -305v-791h-369v694q0 97 -47 108t-101 11t-157 -35v-778h-369v1434h234q85 0 110 -36t25 -157v-287q171 142 381 142z" />
    <glyph glyph-name="i" unicode="i" horiz-adv-x="569" 
d="M264.5 1205q-61.5 0 -116 48.5t-54.5 122.5q0 75 54 125t137 50t136.5 -49.5t53.5 -124.5q0 -117 -74.5 -144.5t-136 -27.5zM100 0v1079h238q82 0 105.5 -39t23.5 -168v-872h-367z" />
    <glyph glyph-name="j" unicode="j" horiz-adv-x="569" 
d="M264.5 1145q-61.5 0 -116 48.5t-54.5 122.5q0 75 54 125t137 50t136.5 -49.5t53.5 -124.5q0 -117 -74.5 -144.5t-136 -27.5zM98 -346q-99 0 -178 27v200h57q70 0 96.5 28.5t26.5 94.5v1075h238q81 0 105 -40t24 -167v-886q0 -257 -135 -294.5t-234 -37.5z" />
    <glyph glyph-name="k" unicode="k" horiz-adv-x="1184" 
d="M1110 1079v-88l-297 -338l338 -565v-88h-346l-250 420l-88 -96v-324h-369v1434h234q85 0 110 -36t25 -157v-563l336 401h307z" />
    <glyph glyph-name="l" unicode="l" horiz-adv-x="573" 
d="M102 0v1434h234q86 0 110.5 -35t24.5 -158v-1241h-369z" />
    <glyph glyph-name="m" unicode="m" horiz-adv-x="1862" 
d="M629 813q-64 0 -162 -31v-782h-369v1079h256q47 0 71.5 -27t33.5 -106q169 150 375 150q205 0 262 -154q172 154 387 154q286 0 286 -305v-791h-368v694q0 67 -28.5 93t-98.5 26t-156 -33v-780h-368v694q0 67 -28.5 93t-92.5 26z" />
    <glyph glyph-name="n" unicode="n" horiz-adv-x="1233" 
d="M624 813q-54 0 -157 -35v-778h-369v1079h256q47 0 70.5 -27t34.5 -104q178 148 389 148q293 0 293 -305v-791h-369v694q0 97 -47 108t-101 11z" />
    <glyph glyph-name="o" unicode="o" horiz-adv-x="1231" 
d="M640.5 225q69.5 0 123 75.5t53.5 229.5q0 234 -78 274t-146.5 40t-123.5 -78t-55 -236q0 -231 78.5 -268t148 -37zM41 535q0 254 163.5 407.5t411.5 153.5q249 0 411.5 -153.5t162.5 -407.5t-162 -402.5t-412 -148.5t-412.5 148.5t-162.5 402.5z" />
    <glyph glyph-name="p" unicode="p" horiz-adv-x="1243" 
d="M823 537q0 232 -79.5 258t-137.5 26t-139 -35v-495q61 -43 154 -43t147.5 62.5t54.5 226.5zM788 1096q276 0 342 -189.5t66 -340.5q0 -284 -132 -420t-315 -136t-282 76v-418h-369v1411h256q45 0 68 -23t35 -93q143 133 331 133z" />
    <glyph glyph-name="q" unicode="q" horiz-adv-x="1243" 
d="M420 547q0 -242 71.5 -269.5t139.5 -27.5t145 55v475q-64 41 -149 41q-207 0 -207 -274zM776 104q-111 -94 -297 -94t-309 131.5t-123 408.5q0 278 134 412t321 134t305 -127q43 110 139 110h199v-1411h-369v436z" />
    <glyph glyph-name="r" unicode="r" horiz-adv-x="850" 
d="M756 1087q25 0 65 -8v-295h-49q-184 0 -305 -51v-733h-369v1079h256q47 0 71.5 -30t33.5 -117q123 155 297 155z" />
    <glyph glyph-name="s" unicode="s" horiz-adv-x="961" 
d="M365 772q0 -35 43 -53.5t139 -30.5t166.5 -33.5t116.5 -60t69 -97.5t23 -190t-120 -226t-352 -95t-399 86v241h125q56 -53 131 -66.5t119 -13.5q160 0 160 78q0 44 -37 62.5t-136 31.5q-195 26 -283.5 99.5t-88.5 241.5t123 258t331 90t365 -72v-238h-117q-98 66 -238 66
t-140 -78z" />
    <glyph glyph-name="t" unicode="t" horiz-adv-x="754" 
d="M141 295v547h-116v237h116v275h369v-275h201v-237h-201v-492q0 -72 30.5 -99.5t102.5 -27.5h72v-213q-94 -28 -194 -28q-194 0 -287 72.5t-93 240.5z" />
    <glyph glyph-name="u" unicode="u" horiz-adv-x="1249" 
d="M100 293v786h369v-702q0 -105 53 -114t104 -9t150 35v790h367v-1079h-256q-47 0 -69 23t-34 98q-175 -137 -368 -137q-316 0 -316 309z" />
    <glyph glyph-name="v" unicode="v" horiz-adv-x="1176" 
d="M31 1079h352l231 -673h4l213 673h314v-84l-369 -995h-364l-381 995v84z" />
    <glyph glyph-name="w" unicode="w" horiz-adv-x="1675" 
d="M35 1079h354l156 -622h4l182 622h270l173 -622h4l165 622h297v-86l-301 -993h-327l-174 594h-4l-183 -594h-323l-293 993v86z" />
    <glyph glyph-name="x" unicode="x" horiz-adv-x="1169" 
d="M59 1079h361l194 -331l181 331h301v-86l-258 -422l292 -485v-86h-358l-209 365l-209 -365h-315v86l301 465l-281 442v86z" />
    <glyph glyph-name="y" unicode="y" horiz-adv-x="1165" 
d="M31 1079h350l225 -612h6l209 612h316v-84l-525 -1327h-333v84l141 299l-389 944v84z" />
    <glyph glyph-name="z" unicode="z" horiz-adv-x="1040" 
d="M78 825v254h903v-254l-508 -575h498v-250h-920v248l506 577h-479z" />
    <glyph glyph-name="braceleft" unicode="{" horiz-adv-x="770" 
d="M199 487q0 76 -42 94.5t-73 18.5h-45v238h45q86 0 100.5 45.5t14.5 66.5v289q0 203 118.5 241t198.5 38h199v-236h-125q-37 0 -47.5 -25.5t-10.5 -35.5v-275q0 -131 -68 -170t-122 -53v-6q151 -39 170.5 -110.5t19.5 -112.5v-297q0 -38 23 -50t35 -12h125v-235h-203
q-157 0 -235 74t-78 206v307z" />
    <glyph glyph-name="bar" unicode="|" horiz-adv-x="406" 
d="M340 -100h-274v1618h274v-1618z" />
    <glyph glyph-name="braceright" unicode="}" horiz-adv-x="770" 
d="M569 180q0 -132 -78 -206t-235 -74h-201v235h123q25 0 42.5 20t17.5 42v297q0 131 67 170t121 53v6q-149 39 -168.5 110.5t-19.5 112.5v275q0 21 -17.5 41t-42.5 20h-123v236h199q235 0 275 -107t40 -172v-289q0 -75 42 -93.5t73 -18.5h47v-238h-47q-85 0 -100 -45.5
t-15 -67.5v-307z" />
    <glyph glyph-name="asciitilde" unicode="~" horiz-adv-x="831" 
d="M305 479q-52 0 -72 -57h-200v108q32 169 115.5 204.5t129.5 35.5t81 -8t66 -17.5t56.5 -17.5t44.5 -8q54 0 72 57h199v-108q-29 -167 -113 -203.5t-128 -36.5q-61 0 -146.5 25.5t-104.5 25.5z" />
    <glyph glyph-name="uni00A0" unicode="&#xa0;" horiz-adv-x="614" 
 />
    <glyph glyph-name="exclamdown" unicode="&#xa1;" horiz-adv-x="616" 
d="M308 1307q80 0 136 -54t56 -132t-56 -132.5t-136 -54.5t-136.5 55t-56.5 132t56.5 131.5t136.5 54.5zM504 -139h-391v215l73 770h242l76 -770v-215z" />
    <glyph glyph-name="cent" unicode="&#xa2;" 
d="M637 817q-141 -58 -141 -286t141 -281v567zM819 -211h-186v199q-241 18 -375.5 160.5t-134.5 382.5t140.5 387.5t373.5 171.5v129h186v-129q150 -14 254 -70v-252h-133q-49 42 -121 59v-585q74 17 135 71h123v-231q-109 -71 -262 -90v-203z" />
    <glyph glyph-name="sterling" unicode="&#xa3;" 
d="M260 489q0 34 -8 101h-139v241h84q-25 102 -25 198q0 197 147.5 310t388.5 113t402 -102v-273h-141q-101 82 -228 82t-156.5 -59.5t-29.5 -121.5t12 -147h332v-241h-301q4 -44 4 -84q0 -128 -78 -211h604v-295h-1026v246q158 57 158 243z" />
    <glyph glyph-name="yen" unicode="&#xa5;" 
d="M106 793h240l-283 544v97h355l225 -500h6l215 500h301v-97l-268 -544h248v-195h-326v-96h326v-193h-326v-309h-387v309h-326v193h326v96h-326v195z" />
    <glyph glyph-name="brokenbar" unicode="&#xa6;" horiz-adv-x="406" 
d="M66 1518h274l2 -719h-276v719zM66 631h276l-2 -731h-274v731z" />
    <glyph glyph-name="section" unicode="&#xa7;" horiz-adv-x="1126" 
d="M690 440q82 35 82 112t-73 103.5t-154 47.5t-117 34q-90 -26 -90 -102q0 -51 39.5 -84t145.5 -61q105 -28 167 -50zM512 -274q-222 0 -401 84v241h118q56 -52 145.5 -67t129.5 -15q162 0 162 90q0 44 -41 66.5t-165 56.5q-234 64 -327.5 146.5t-93.5 232.5q0 196 190 277
q-100 80 -100 249t123 267t341 98q217 0 365 -74v-237h-116q-93 69 -248 69q-156 0 -156 -88q0 -39 43.5 -67t155.5 -57q243 -61 343.5 -140t100.5 -244q0 -194 -188 -276q106 -84 106 -294t-181 -264t-306 -54z" />
    <glyph glyph-name="dieresis" unicode="&#xa8;" horiz-adv-x="815" 
d="M616 1147q-76 0 -124 46t-48 116t48.5 117t123.5 47t125 -46.5t50 -117.5t-49.5 -116.5t-125.5 -45.5zM74 1192.5q-49 45.5 -49 116.5q0 70 49 117t125 47q116 0 144 -64.5t28 -100.5t-13 -65t-48 -62.5t-111 -33.5t-125 45.5z" />
    <glyph glyph-name="copyright" unicode="&#xa9;" horiz-adv-x="1599" 
d="M401 716q0 192 121 303t318 111q141 0 256 -55v-194h-107q-57 49 -135 49q-77 0 -122.5 -53t-45.5 -162q0 -209 162 -209q93 0 151 53h99v-176q-117 -74 -275 -74q-304 0 -363 154.5t-59 252.5zM1230 1168.5q-173 166.5 -430 166.5t-430 -166t-173 -452.5t173.5 -452.5
t429.5 -166q257 0 430 166.5t173 452t-173 452zM801 -16q-98 0 -191 21.5t-175.5 63.5t-152 104t-119.5 143.5t-78 182t-28 218.5t28 218.5t78 182t119.5 143.5t152 104t175.5 63.5t191 21.5t191 -21.5t175 -63.5t151 -104t119 -143.5t77.5 -182t27.5 -218.5t-27.5 -218.5
t-77.5 -182t-119 -143.5t-151 -104t-175 -63.5t-191 -21.5z" />
    <glyph glyph-name="ordfeminine" unicode="&#xaa;" horiz-adv-x="954" 
d="M471 911q-125 0 -125 -102t109 -102q56 0 110 45v151q-56 8 -94 8zM106 1374q177 76 383 76t304 -76t98 -246v-600h-186q-54 0 -81.5 21.5t-41.5 66.5q-89 -100 -256 -100q-124 0 -205.5 70t-81.5 205t95 206.5t259 71.5q106 0 172 -16v55q0 56 -34 82.5t-132 26.5
t-192 -58h-101v215z" />
    <glyph glyph-name="guillemotleft" unicode="&#xab;" horiz-adv-x="1090" 
d="M1026 983v-74l-215 -372v-5l215 -376v-74h-274l-232 385v129l232 387h274zM569 983v-74l-215 -372v-5l215 -376v-74h-274l-232 385v129l232 387h274z" />
    <glyph glyph-name="registered" unicode="&#xae;" horiz-adv-x="786" 
d="M393 1106q45 0 45 45t-45 45h-31v-90h31zM563 1151q0 -64 -53 -96l61 -113v-39h-118l-60 123h-28v-123h-127v375h168q157 0 157 -127zM597.5 872.5q80.5 75.5 80.5 211.5t-80.5 211t-204 75t-204 -75t-80.5 -211t80.5 -211.5t204 -75.5t204 75.5zM393 717
q-156 0 -267.5 99.5t-111.5 267.5q0 167 111.5 266.5t267.5 99.5t267.5 -99t111.5 -267q0 -167 -111.5 -267t-267.5 -100z" />
    <glyph glyph-name="macron" unicode="&#xaf;" horiz-adv-x="815" 
d="M684 1186h-553v221h553v-221z" />
    <glyph glyph-name="degree" unicode="&#xb0;" horiz-adv-x="717" 
d="M374 1010q44 0 79.5 39t35.5 102t-36 101t-94 38t-93 -38t-35 -86t9.5 -73t26 -44t40 -29t67.5 -10zM358 854q-63 0 -119 21.5t-98.5 60.5t-67 93.5t-24.5 121.5t24.5 121.5t67 93t98.5 59.5t119 21t119.5 -21t99.5 -59.5t68 -93t25 -121.5t-25 -121.5t-68 -93.5
t-99.5 -60.5t-119.5 -21.5z" />
    <glyph glyph-name="acute" unicode="&#xb4;" horiz-adv-x="815" 
d="M291 1149v68l67 223h355v-88l-207 -203h-215z" />
    <glyph glyph-name="paragraph" unicode="&#xb6;" horiz-adv-x="1208" 
d="M43 1022q0 412 520 412h531v-1620h-234v1386h-131v-1386h-233v800h-7q-317 0 -381.5 150t-64.5 258z" />
    <glyph glyph-name="periodcentered" unicode="&#xb7;" horiz-adv-x="481" 
d="M240 418q-40 0 -75 14t-61.5 39t-41.5 58.5t-15 72.5t15 73t41.5 59t61.5 39.5t75 14.5t75 -14.5t61 -39.5t41 -59t15 -73t-15 -72.5t-41 -58.5t-61 -39t-75 -14z" />
    <glyph glyph-name="cedilla" unicode="&#xb8;" horiz-adv-x="815" 
d="M422 -188q0 32 -64 32h-45v156h156v-49q166 -10 166 -150q0 -72 -57 -115.5t-162 -43.5t-178 32v127h63q27 -22 74 -22q47 1 47 33z" />
    <glyph glyph-name="ordmasculine" unicode="&#xba;" horiz-adv-x="1069" 
d="M377 975q0 -248 157.5 -248t157.5 248q0 132 -43 193t-115 61t-114.5 -61t-42.5 -193zM183.5 639q-136.5 125 -136.5 339t137 343t350.5 129t350.5 -129t137 -343t-136.5 -339t-351 -125t-351 125z" />
    <glyph glyph-name="guillemotright" unicode="&#xbb;" horiz-adv-x="1090" 
d="M63 983h275l231 -387v-129l-231 -385h-275v74l216 376v5l-216 372v74zM520 983h275l231 -387v-129l-231 -385h-275v74l215 376v5l-215 372v74z" />
    <glyph glyph-name="onequarter" unicode="&#xbc;" horiz-adv-x="1583" 
d="M383 -70h-238l1010 1563h238zM201 631v545l-101 -52h-47v199l223 111h209v-803h-284zM1044 328h170v213h-4l-166 -209v-4zM1206 0v162h-350v192l361 449h260v-473h79v-168h-79v-162h-271z" />
    <glyph glyph-name="onehalf" unicode="&#xbd;" horiz-adv-x="1667" 
d="M381 -70h-238l1010 1563h238zM201 631v545l-101 -52h-47v199l223 111h209v-803h-284zM1307 817q319 0 319 -242q0 -114 -71.5 -179.5t-114.5 -100.5l-115 -94h291v-201h-604v201l223 196q106 95 106 147q0 66 -80 66t-128 -45h-107v180q119 72 281 72z" />
    <glyph glyph-name="threequarters" unicode="&#xbe;" horiz-adv-x="1661" 
d="M481 -70h-237l1009 1563h238zM1122 328h170v213h-4l-166 -209v-4zM1284 0v162h-350v192l360 449h260v-473h80v-168h-80v-162h-270zM662 1229q0 -144 -164 -182v-7q178 -24 178 -191t-135 -200t-219 -33q-149 0 -263 62v168h99q55 -43 133 -43q112 1 112 75t-104 74h-82
v162h74q110 0 110 72q0 67 -92 67q-69 0 -129 -36h-98v163q109 68 274 68q215 0 260.5 -81t45.5 -138z" />
    <glyph glyph-name="questiondown" unicode="&#xbf;" horiz-adv-x="950" 
d="M574 1307q80 0 136 -54t56 -132t-56 -132.5t-136 -54.5q-81 0 -137 54.5t-56 132.5t56.5 132t136.5 54zM170.5 -61.5q-121.5 98.5 -121.5 274.5t87 255.5t134 115.5q108 81 147 130.5t32 131.5h266q21 -123 0.5 -182.5t-50 -99.5t-68.5 -78q-94 -90 -130.5 -138.5
t-36.5 -108.5t37.5 -89t99.5 -29q127 0 211 82h140v-254q-171 -109 -398 -109q-228 0 -349.5 98.5z" />
    <glyph glyph-name="Agrave" unicode="&#xc0;" horiz-adv-x="1421" 
d="M526 590h297l-147 483h-4zM1384 0h-380l-101 324h-457l-96 -324h-311v92l457 1342h426l462 -1342v-92zM403 1757h355l69 -209v-67h-215l-209 190v86z" />
    <glyph glyph-name="Aacute" unicode="&#xc1;" horiz-adv-x="1421" 
d="M526 590h297l-147 483h-4zM1384 0h-380l-101 324h-457l-96 -324h-311v92l457 1342h426l462 -1342v-92zM1004 1757v-86l-207 -190h-215v67l67 209h355z" />
    <glyph glyph-name="Acircumflex" unicode="&#xc2;" horiz-adv-x="1421" 
d="M542 590h297l-147 483h-4zM1400 0h-380l-101 324h-457l-96 -324h-311v92l457 1342h426l462 -1342v-92zM1028 1481h-199l-115 78l-112 -78h-191v78l187 204h247l183 -204v-78z" />
    <glyph glyph-name="Atilde" unicode="&#xc3;" horiz-adv-x="1421" 
d="M526 590h297l-147 483h-4zM1384 0h-380l-101 324h-457l-96 -324h-311v92l457 1342h426l462 -1342v-92zM795 1724q46 0 63 50h184v-82q-16 -103 -72 -157t-130 -54q-74 1 -147 27t-91 26q-53 0 -65 -53h-185v82q17 103 73 157t130 54t148 -25q73 -25 92 -25z" />
    <glyph glyph-name="Adieresis" unicode="&#xc4;" horiz-adv-x="1421" 
d="M526 590h297l-147 483h-4zM1384 0h-380l-101 324h-457l-96 -324h-311v92l457 1342h426l462 -1342v-92zM913 1481q-76 0 -124 46q-48 45 -48 115t48 116t124 46t125 -45q50 -45 50 -117q0 -71 -50 -116q-49 -45 -125 -45zM371 1527q-49 45 -49 115t49 116t125 46
q116 0 159 -96q13 -30 13 -66t-13 -64q-13 -30 -35 -52q-48 -46 -124 -45q-76 0 -125 46z" />
    <glyph glyph-name="Aring" unicode="&#xc5;" horiz-adv-x="1421" 
d="M526 590h297l-147 483h-4zM1384 0h-380l-101 324h-457l-96 -324h-311v92l457 1342h426l462 -1342v-92zM703 1616q31 0 50 20t19 54t-19 54t-50 20t-49 -20t-19 -54q1 -34 19 -54t49 -20zM702 1481q-92 0 -154 56q-65 58 -65 153q0 94 64 151q64 58 156 58q91 0 155 -58
q64 -57 64 -151t-64 -152q-64 -57 -156 -57z" />
    <glyph glyph-name="AE" unicode="&#xc6;" horiz-adv-x="1972" 
d="M897 602v557h-41l-256 -557h297zM897 338h-418l-155 -338h-306v92l652 1342h1214v-275h-596v-305h418v-258h-418v-330h617v-266h-1008v338z" />
    <glyph glyph-name="Ccedilla" unicode="&#xc7;" horiz-adv-x="1292" 
d="M954 -199q0 -72 -56.5 -115.5t-162.5 -43.5t-178 32v127h64q27 -22 73 -22q47 1 47 33t-63 32h-45v146q-272 37 -425 223.5t-153 514.5q0 329 201 526.5t537 197.5q253 0 430 -102v-273h-152q-102 94 -266 94q-165 0 -256.5 -110.5t-91.5 -337.5q0 -358 123 -412.5
t204 -54.5q187 0 312 125h139v-260q-180 -130 -447 -139v-31q166 -10 166 -150z" />
    <glyph glyph-name="Egrave" unicode="&#xc8;" horiz-adv-x="1190" 
d="M115 1434h987v-275h-596v-305h420v-258h-420v-330h616v-266h-1007v1434zM331 1757h355l69 -209v-67h-215l-209 190v86z" />
    <glyph glyph-name="Eacute" unicode="&#xc9;" horiz-adv-x="1190" 
d="M115 1434h987v-275h-596v-305h420v-258h-420v-330h616v-266h-1007v1434zM938 1757v-86l-207 -190h-215v67l67 209h355z" />
    <glyph glyph-name="Ecircumflex" unicode="&#xca;" horiz-adv-x="1190" 
d="M115 1434h987v-275h-596v-305h420v-258h-420v-330h616v-266h-1007v1434zM940 1481h-199l-115 78l-112 -78h-191v78l187 204h247l183 -204v-78z" />
    <glyph glyph-name="Edieresis" unicode="&#xcb;" horiz-adv-x="1190" 
d="M115 1434h987v-275h-596v-305h420v-258h-420v-330h616v-266h-1007v1434zM841 1481q-76 0 -124 46q-48 45 -48 115t48 116t124 46t125 -45q50 -45 50 -117q0 -71 -50 -116q-49 -45 -125 -45zM299 1527q-49 45 -49 115t49 116t125 46q116 0 159 -96q13 -30 13 -66t-13 -64
q-13 -30 -35 -52q-48 -46 -124 -45q-76 0 -125 46z" />
    <glyph glyph-name="Igrave" unicode="&#xcc;" horiz-adv-x="637" 
d="M121 0v1434h395v-1434h-395zM19 1757h355l69 -209v-67h-215l-209 190v86z" />
    <glyph glyph-name="Iacute" unicode="&#xcd;" horiz-adv-x="637" 
d="M121 0v1434h395v-1434h-395zM626 1757v-86l-207 -190h-215v67l67 209h355z" />
    <glyph glyph-name="Icircumflex" unicode="&#xce;" horiz-adv-x="637" 
d="M121 0v1434h395v-1434h-395zM628 1481h-199l-115 78l-112 -78h-191v78l187 204h247l183 -204v-78z" />
    <glyph glyph-name="Idieresis" unicode="&#xcf;" horiz-adv-x="637" 
d="M121 0v1434h395v-1434h-395zM527 1481q-76 0 -124 46q-48 45 -48 115t48 116t124 46t125 -45q50 -45 50 -117q0 -71 -50 -116q-49 -45 -125 -45zM-15 1527q-49 45 -49 115t49 116t125 46q116 0 159 -96q13 -30 13 -66t-13 -64q-13 -30 -35 -52q-48 -46 -124 -45
q-76 0 -125 46z" />
    <glyph glyph-name="Eth" unicode="&#xd0;" horiz-adv-x="1444" 
d="M612 264q195 0 286 104.5t91 346t-89 344t-288 102.5h-96v-319h258v-254h-258v-324h96zM631 1434q760 0 760 -709q0 -362 -195.5 -543.5t-577.5 -181.5h-495v588h-113v254h113v592h508z" />
    <glyph glyph-name="Ntilde" unicode="&#xd1;" horiz-adv-x="1448" 
d="M115 1434h420l469 -830h6v830h323v-1434h-356l-535 940h-6v-940h-321v1434zM854 1724q46 0 63 50h184v-82q-17 -103 -73 -157t-129 -54q-74 1 -147 27t-91 26q-53 0 -65 -53h-185v82q17 103 73 157t130 54t148 -25q73 -25 92 -25z" />
    <glyph glyph-name="Ograve" unicode="&#xd2;" horiz-adv-x="1520" 
d="M760 250q68 0 124 26t97 84q41 56 63 143t23 208q0 234 -83 350q-83 115 -224 115q-218 0 -284 -256q-22 -88 -23 -209q1 -121 23 -208t63 -143t97 -84q56 -26 124 -26zM53 715q0 343 203 540t505 197t504 -198q203 -198 203 -539q0 -342 -202 -538q-202 -195 -506 -195
t-505 195q-202 195 -202 538zM458 1757h355l69 -209v-67h-215l-209 190v86z" />
    <glyph glyph-name="Oacute" unicode="&#xd3;" horiz-adv-x="1520" 
d="M760 250q68 0 124 26t97 84q41 56 63 143t23 208q0 234 -83 350q-83 115 -224 115q-218 0 -284 -256q-22 -88 -23 -209q1 -121 23 -208t63 -143t97 -84q56 -26 124 -26zM53 715q0 343 203 540t505 197t504 -198q203 -198 203 -539q0 -342 -202 -538q-202 -195 -506 -195
t-505 195q-202 195 -202 538zM1065 1757v-86l-207 -190h-215v67l67 209h355z" />
    <glyph glyph-name="Ocircumflex" unicode="&#xd4;" horiz-adv-x="1520" 
d="M760 250q68 0 124 26t97 84q41 56 63 143t23 208q0 234 -83 350q-83 115 -224 115q-218 0 -284 -256q-22 -88 -23 -209q1 -121 23 -208t63 -143t97 -84q56 -26 124 -26zM53 715q0 343 203 540t505 197t504 -198q203 -198 203 -539q0 -342 -202 -538q-202 -195 -506 -195
t-505 195q-202 195 -202 538zM1067 1481h-199l-115 78l-112 -78h-191v78l187 204h247l183 -204v-78z" />
    <glyph glyph-name="Otilde" unicode="&#xd5;" horiz-adv-x="1520" 
d="M760 250q68 0 124 26t97 84q41 56 63 143t23 208q0 234 -83 350q-83 115 -224 115q-218 0 -284 -256q-22 -88 -23 -209q1 -121 23 -208t63 -143t97 -84q56 -26 124 -26zM53 715q0 343 203 540t505 197t504 -198q203 -198 203 -539q0 -342 -202 -538q-202 -195 -506 -195
t-505 195q-202 195 -202 538zM856 1724q46 0 63 50h184v-82q-17 -103 -73 -157t-129 -54q-74 1 -147 27t-91 26q-53 0 -65 -53h-185v82q17 103 73 157t130 54t148 -25q73 -25 92 -25z" />
    <glyph glyph-name="Odieresis" unicode="&#xd6;" horiz-adv-x="1520" 
d="M760 250q68 0 124 26t97 84q41 56 63 143t23 208q0 234 -83 350q-83 115 -224 115q-218 0 -284 -256q-22 -88 -23 -209q1 -121 23 -208t63 -143t97 -84q56 -26 124 -26zM53 715q0 343 203 540t505 197t504 -198q203 -198 203 -539q0 -342 -202 -538q-202 -195 -506 -195
t-505 195q-202 195 -202 538zM968 1481q-76 0 -124 46q-48 45 -48 115t48 116t124 46t125 -45q50 -45 50 -117q0 -71 -50 -116q-49 -45 -125 -45zM426 1527q-49 45 -49 115t49 116t125 46q116 0 159 -96q13 -30 13 -66t-13 -64q-14 -30 -36 -52q-48 -46 -123 -45
q-76 0 -125 46z" />
    <glyph glyph-name="multiply" unicode="&#xd7;" 
d="M137 414l285 282l-285 283l195 195l284 -285l285 285l195 -195l-287 -283l287 -282l-193 -193l-287 283l-286 -283z" />
    <glyph glyph-name="Oslash" unicode="&#xd8;" horiz-adv-x="1520" 
d="M760 246q223 0 269 171.5t46 285.5t-20 210l-488 -600q73 -67 193 -67zM760 1180q-224 0 -269 -173.5t-45 -295.5t23 -217l492 606q-78 80 -201 80zM1468 715q0 -342 -201.5 -537.5t-506.5 -195.5q-218 0 -381 98l-100 -125h-199v57l151 187q-178 199 -178 529t203 527
t504 197q218 0 397 -111l98 121h197v-57l-154 -188q170 -200 170 -502z" />
    <glyph glyph-name="Ugrave" unicode="&#xd9;" horiz-adv-x="1419" 
d="M1309 545q0 -561 -584 -561q-305 0 -461 145t-155 416v889h393v-887q0 -223 141 -265q45 -14 105 -14q122 0 179 61q56 61 56 218v887h326v-889zM440 1757h355l69 -209v-67h-215l-209 190v86z" />
    <glyph glyph-name="Uacute" unicode="&#xda;" horiz-adv-x="1419" 
d="M1309 545q0 -561 -584 -561q-305 0 -461 145t-155 416v889h393v-887q0 -223 141 -265q45 -14 105 -14q122 0 179 61q56 61 56 218v887h326v-889zM1047 1757v-86l-207 -190h-215v67l67 209h355z" />
    <glyph glyph-name="Ucircumflex" unicode="&#xdb;" horiz-adv-x="1419" 
d="M1309 545q0 -561 -584 -561q-305 0 -461 145t-155 416v889h393v-887q0 -223 141 -265q45 -14 105 -14q122 0 179 61q56 61 56 218v887h326v-889zM1049 1481h-199l-115 78l-112 -78h-191v78l187 204h247l183 -204v-78z" />
    <glyph glyph-name="Udieresis" unicode="&#xdc;" horiz-adv-x="1419" 
d="M1309 545q0 -561 -584 -561q-305 0 -461 145t-155 416v889h393v-887q0 -223 141 -265q45 -14 105 -14q122 0 179 61q56 61 56 218v887h326v-889zM948 1481q-76 0 -124 46q-48 45 -48 115t48 116t124 46t125 -45q50 -45 50 -117q0 -71 -50 -116q-49 -45 -125 -45z
M406 1527q-49 45 -49 115t49 116t125 46q116 0 159 -96q13 -30 13 -66t-13 -64q-14 -30 -36 -52q-48 -46 -123 -45q-76 0 -125 46z" />
    <glyph glyph-name="Yacute" unicode="&#xdd;" horiz-adv-x="1305" 
d="M467 0v532l-438 805v97h368l287 -560h4l277 560h311v-97l-416 -794v-543h-393zM977 1757v-86l-207 -190h-215v67l67 209h355z" />
    <glyph glyph-name="Thorn" unicode="&#xde;" horiz-adv-x="1268" 
d="M506 520h119q168 0 190.5 78t22.5 153.5t-46 121t-167 45.5h-119v-398zM1227 727q0 -455 -600 -455h-119v-272h-393v1434h393v-250h133q292 0 439 -112t147 -345z" />
    <glyph glyph-name="germandbls" unicode="&#xdf;" horiz-adv-x="1335" 
d="M660 1456q510 0 511 -317q0 -132 -163 -252q-94 -71 -101.5 -92t-7.5 -33q0 -26 27.5 -45.5t95.5 -47.5q148 -60 212 -134.5t64 -220.5t-112 -238t-311 -92q-200 0 -308 69v240h117q70 -64 164 -64q54 0 85.5 18.5t31.5 41.5q0 38 -28.5 55.5t-136.5 58.5
q-107 41 -167 107.5t-60 160.5t28.5 142.5t54 76.5t51.5 56t44 48t37 46.5t19 66.5t-36 68.5t-107 28.5q-197 0 -197 -192v-1012h-369v1020q0 316 216 376t346 60z" />
    <glyph glyph-name="agrave" unicode="&#xe0;" horiz-adv-x="1133" 
d="M551 461q-160 0 -160 -130t145 -130q68 0 136 59v191q-56 10 -121 10zM561 1096q365 0 449 -202q30 -70 30 -171v-723h-200q-64 0 -98 24t-50 78q-105 -116 -309 -116q-150 0 -246 84t-96 243q0 160 115 245t309 85q103 0 207 -20v73q0 70 -42 104t-164 34
q-123 0 -233 -72h-110v248q199 86 438 86zM243 1440h355l69 -223v-68h-215l-209 203v88z" />
    <glyph glyph-name="aacute" unicode="&#xe1;" horiz-adv-x="1133" 
d="M551 461q-160 0 -160 -130t145 -130q68 0 136 59v191q-56 10 -121 10zM561 1096q365 0 449 -202q30 -70 30 -171v-723h-200q-64 0 -98 24t-50 78q-105 -116 -309 -116q-150 0 -246 84t-96 243q0 160 115 245t309 85q103 0 207 -20v73q0 70 -42 104t-164 34
q-123 0 -233 -72h-110v248q199 86 438 86zM453 1149v68l67 223h355v-88l-207 -203h-215z" />
    <glyph glyph-name="acircumflex" unicode="&#xe2;" horiz-adv-x="1133" 
d="M551 461q-160 0 -160 -130t145 -130q68 0 136 59v191q-56 10 -121 10zM561 1096q365 0 449 -202q30 -70 30 -171v-723h-200q-64 0 -98 24t-50 78q-105 -116 -309 -116q-150 0 -246 84t-96 243q0 160 115 245t309 85q103 0 207 -20v73q0 70 -42 104t-164 34
q-123 0 -233 -72h-110v248q199 86 438 86zM867 1149h-199l-115 86l-112 -86h-191v78l187 213h247l183 -213v-78z" />
    <glyph glyph-name="atilde" unicode="&#xe3;" horiz-adv-x="1133" 
d="M551 461q-160 0 -160 -130t145 -130q68 0 136 59v191q-56 10 -121 10zM561 1096q365 0 449 -202q30 -70 30 -171v-723h-200q-64 0 -98 24t-50 78q-105 -116 -309 -116q-150 0 -246 84t-96 243q0 160 115 245t309 85q103 0 207 -20v73q0 70 -42 104t-164 34
q-123 0 -233 -72h-110v248q199 86 438 86zM656 1397q46 0 63 49h184v-82q-17 -102 -73 -158t-129 -55q-74 1 -147 27t-91 26q-53 0 -65 -53h-185v82q17 101 73 157t129 56t147 -24q73 -24 94 -25z" />
    <glyph glyph-name="adieresis" unicode="&#xe4;" horiz-adv-x="1133" 
d="M551 461q-160 0 -160 -130t145 -130q68 0 136 59v191q-56 10 -121 10zM561 1096q365 0 449 -202q30 -70 30 -171v-723h-200q-64 0 -98 24t-50 78q-105 -116 -309 -116q-150 0 -246 84t-96 243q0 160 115 245t309 85q103 0 207 -20v73q0 70 -42 104t-164 34
q-123 0 -233 -72h-110v248q199 86 438 86zM766 1147q-76 0 -124 46t-48 116t48 117t124 47q75 0 125 -47t50 -117q0 -71 -50 -117q-49 -45 -125 -45zM224 1193q-49 46 -49 116t49 117t125 47q116 0 159 -99q13 -30 13 -66t-13 -64q-14 -30 -36 -52q-48 -46 -123 -45
q-76 0 -125 46z" />
    <glyph glyph-name="aring" unicode="&#xe5;" horiz-adv-x="1133" 
d="M551 461q-160 0 -160 -130t145 -130q68 0 136 59v191q-56 10 -121 10zM561 1096q365 0 449 -202q30 -70 30 -171v-723h-200q-64 0 -98 24t-50 78q-105 -116 -309 -116q-150 0 -246 84t-96 243q0 160 115 245t309 85q103 0 207 -20v73q0 70 -42 104t-164 34
q-123 0 -233 -72h-110v248q199 86 438 86zM558 1286q31 0 50 20t19 54t-19 54t-50 20q-32 0 -50 -20t-18 -54t18 -54t50 -20zM558 1151q-92 0 -155 56q-65 58 -65 153q0 94 64 151q64 58 156 58q91 0 155 -58q64 -57 64 -151t-64 -152q-63 -57 -155 -57z" />
    <glyph glyph-name="ae" unicode="&#xe6;" horiz-adv-x="1767" 
d="M1222 870q-75 0 -121 -49t-59 -172h336q-6 176 -64 198.5t-92 22.5zM547 459q-156 0 -156 -127q0 -98 52 -114.5t99 -16.5q89 0 167 86q-28 67 -39 172h-123zM41 351.5q0 123.5 118 209.5t326 86h187v51q0 70 -41.5 103t-164.5 33t-233 -72h-110v248q199 86 435 86
t331 -101q145 101 332 101q505 0 505 -543l-4 -94h-682q19 -189 108 -209.5t144 -20.5q159 0 277 80h114v-219q-186 -106 -463 -106t-425 163q-139 -161 -393 -161t-307.5 121t-53.5 244.5z" />
    <glyph glyph-name="ccedilla" unicode="&#xe7;" horiz-adv-x="1040" 
d="M416 423.5q0 -185.5 241 -185.5q120 0 205 75h123v-231q-150 -98 -367 -98v-33q166 -10 166 -150q0 -72 -56.5 -115.5t-162.5 -43.5t-178 32v127h64q27 -22 73 -22q47 1 47 33t-63 32h-45v154q-201 37 -311.5 174t-110.5 380t164.5 393.5t433.5 150.5q200 0 342 -76v-252
h-133q-76 68 -193 68q-169 0 -204 -113.5t-35 -299z" />
    <glyph glyph-name="egrave" unicode="&#xe8;" horiz-adv-x="1141" 
d="M594 870q-74 0 -119 -49q-46 -49 -59 -170h336q-8 175 -94 208q-30 11 -64 11zM668 229q161 0 274 80h115v-219q-186 -106 -454 -106q-269 0 -416 145q-146 145 -146 404q1 259 153 411t398 152q508 0 508 -543l-4 -94h-682q20 -190 154 -220q44 -10 100 -10zM268 1440
h355l69 -223v-68h-215l-209 203v88z" />
    <glyph glyph-name="eacute" unicode="&#xe9;" horiz-adv-x="1141" 
d="M594 870q-74 0 -119 -49q-46 -49 -59 -170h336q-8 175 -94 208q-30 11 -64 11zM668 229q161 0 274 80h115v-219q-186 -106 -454 -106q-269 0 -416 145q-146 145 -146 404q1 259 153 411t398 152q508 0 508 -543l-4 -94h-682q20 -190 154 -220q44 -10 100 -10zM477 1149
v68l67 223h355v-88l-207 -203h-215z" />
    <glyph glyph-name="ecircumflex" unicode="&#xea;" horiz-adv-x="1141" 
d="M594 870q-74 0 -119 -49q-46 -49 -59 -170h336q-8 175 -94 208q-30 11 -64 11zM668 229q161 0 274 80h115v-219q-186 -106 -454 -106q-269 0 -416 145q-146 145 -146 404q1 259 153 411t398 152q508 0 508 -543l-4 -94h-682q20 -190 154 -220q44 -10 100 -10zM891 1149
h-199l-115 86l-112 -86h-191v78l187 213h247l183 -213v-78z" />
    <glyph glyph-name="edieresis" unicode="&#xeb;" horiz-adv-x="1141" 
d="M594 870q-74 0 -119 -49q-46 -49 -59 -170h336q-8 175 -94 208q-30 11 -64 11zM668 229q161 0 274 80h115v-219q-186 -106 -454 -106q-269 0 -416 145q-146 145 -146 404q1 259 153 411t398 152q508 0 508 -543l-4 -94h-682q20 -190 154 -220q44 -10 100 -10zM790 1147
q-76 0 -124 46t-48 116t48 117t124 47q75 0 125 -47t50 -117q0 -71 -50 -117q-49 -45 -125 -45zM248 1193q-49 46 -49 116t49 117t125 47q116 0 159 -99q13 -30 13 -66t-13 -64q-14 -30 -36 -52q-48 -46 -123 -45q-76 0 -125 46z" />
    <glyph glyph-name="igrave" unicode="&#xec;" horiz-adv-x="569" 
d="M100 0v1079h238q82 0 105 -39q24 -39 24 -168v-872h-367zM-14 1440h355l69 -223v-68h-215l-209 203v88z" />
    <glyph glyph-name="iacute" unicode="&#xed;" horiz-adv-x="569" 
d="M100 0v1079h238q82 0 105 -39q24 -39 24 -168v-872h-367zM157 1149v68l67 223h355v-88l-207 -203h-215z" />
    <glyph glyph-name="icircumflex" unicode="&#xee;" horiz-adv-x="569" 
d="M100 0v1079h238q82 0 105 -39q24 -39 24 -168v-872h-367zM595 1149h-199l-115 86l-112 -86h-191v78l187 213h247l183 -213v-78z" />
    <glyph glyph-name="idieresis" unicode="&#xef;" horiz-adv-x="569" 
d="M100 0v1079h238q82 0 105 -39q24 -39 24 -168v-872h-367zM494 1147q-76 0 -124 46t-48 116t48 117t124 47q75 0 125 -47t50 -117q0 -71 -50 -117q-49 -45 -125 -45zM-48 1193q-49 46 -49 116t49 117t125 47q116 0 159 -99q13 -30 13 -66t-13 -64q-14 -30 -36 -52
q-48 -46 -123 -45q-76 0 -125 46z" />
    <glyph glyph-name="eth" unicode="&#xf0;" horiz-adv-x="1231" 
d="M623 799q-148 0 -178.5 -107.5t-30.5 -181.5q0 -142 56.5 -213.5t149.5 -71.5q197 0 197 287t-194 287zM303 1434h143q108 -16 199 -48l53 46h207v-56l-82 -69q175 -105 271 -286t96 -433q0 -302 -160 -453t-418 -151t-414.5 143t-156.5 385t135.5 379t333.5 137
q134 0 184.5 -39t73.5 -61q-47 117 -168 192l-59 -51h-207v57l82 70l-113 27v211z" />
    <glyph glyph-name="ntilde" unicode="&#xf1;" horiz-adv-x="1233" 
d="M624 813q-54 0 -157 -35v-778h-369v1079h256q47 0 71 -27q23 -27 34 -104q178 148 389 148q293 0 293 -305v-791h-369v694q0 98 -70 114q-24 6 -78 5zM721 1397q46 0 63 49h184v-82q-16 -102 -72 -158t-130 -55t-147 27t-91 26q-53 0 -65 -53h-185v82q17 101 73 157
t129 56t146 -24q74 -24 95 -25z" />
    <glyph glyph-name="ograve" unicode="&#xf2;" horiz-adv-x="1231" 
d="M616 225q94 0 148 76q53 76 53 229q0 234 -119 295q-37 19 -82 19q-92 0 -147 -78t-55 -236q0 -232 120 -288q37 -18 82 -17zM41 535q0 254 163 408q164 153 412 153q249 0 411 -153q163 -153 163 -408q0 -254 -162 -402q-162 -149 -412 -149t-413 149q-162 148 -162 402
zM301 1440h355l69 -223v-68h-215l-209 203v88z" />
    <glyph glyph-name="oacute" unicode="&#xf3;" horiz-adv-x="1231" 
d="M616 225q94 0 148 76q53 76 53 229q0 234 -119 295q-37 19 -82 19q-92 0 -147 -78t-55 -236q0 -232 120 -288q37 -18 82 -17zM41 535q0 254 163 408q164 153 412 153q249 0 411 -153q163 -153 163 -408q0 -254 -162 -402q-162 -149 -412 -149t-413 149q-162 148 -162 402
zM510 1149v68l67 223h355v-88l-207 -203h-215z" />
    <glyph glyph-name="ocircumflex" unicode="&#xf4;" horiz-adv-x="1231" 
d="M616 225q94 0 148 76q53 76 53 229q0 234 -119 295q-37 19 -82 19q-92 0 -147 -78t-55 -236q0 -232 120 -288q37 -18 82 -17zM41 535q0 254 163 408q164 153 412 153q249 0 411 -153q163 -153 163 -408q0 -254 -162 -402q-162 -149 -412 -149t-413 149q-162 148 -162 402
zM924 1149h-199l-115 86l-112 -86h-191v78l187 213h247l183 -213v-78z" />
    <glyph glyph-name="otilde" unicode="&#xf5;" horiz-adv-x="1231" 
d="M616 225q94 0 148 76q53 76 53 229q0 234 -119 295q-37 19 -82 19q-92 0 -147 -78t-55 -236q0 -232 120 -288q37 -18 82 -17zM41 535q0 254 163 408q164 153 412 153q249 0 411 -153q163 -153 163 -408q0 -254 -162 -402q-162 -149 -412 -149t-413 149q-162 148 -162 402
zM713 1397q46 0 63 49h184v-82q-16 -102 -72 -158t-130 -55t-147 27t-91 26q-53 0 -65 -53h-185v82q17 101 73 157t129 56t147 -24q73 -24 94 -25z" />
    <glyph glyph-name="odieresis" unicode="&#xf6;" horiz-adv-x="1231" 
d="M616 225q94 0 148 76q53 76 53 229q0 234 -119 295q-37 19 -82 19q-92 0 -147 -78t-55 -236q0 -232 120 -288q37 -18 82 -17zM41 535q0 254 163 408q164 153 412 153q249 0 411 -153q163 -153 163 -408q0 -254 -162 -402q-162 -149 -412 -149t-413 149q-162 148 -162 402
zM823 1147q-76 0 -124 46t-48 116t48 117t124 47q75 0 125 -47t50 -117q0 -71 -50 -117q-49 -45 -125 -45zM281 1193q-49 46 -49 116t49 117t125 47q116 0 159 -99q13 -30 13 -66t-13 -64q-13 -30 -35 -52q-48 -46 -124 -45q-76 0 -125 46z" />
    <glyph glyph-name="divide" unicode="&#xf7;" 
d="M481 971q-55 53 -55 130t55.5 131t134.5 54t135 -54t56 -131t-56 -130t-135 -53q-80 0 -135 53zM119 850h995v-285h-995v285zM426 312q0 77 55.5 131.5t134.5 54.5t135 -54t56 -132t-55.5 -130.5t-135.5 -52.5q-79 0 -134.5 53t-55.5 130z" />
    <glyph glyph-name="oslash" unicode="&#xf8;" horiz-adv-x="1231" 
d="M825 530q0 77 -8 119l-325 -397q46 -39 108 -39q225 0 225 317zM631 852q-228 0 -228 -322q0 -68 9 -116l325 397q-44 41 -106 41zM1042 926q148 -154 148 -399t-162.5 -394t-411.5 -149q-162 0 -290 63l-82 -100h-168v53l117 143q-152 152 -152 399t163 400.5t412 153.5
q161 0 295 -72l74 92h168v-53z" />
    <glyph glyph-name="ugrave" unicode="&#xf9;" horiz-adv-x="1249" 
d="M100 293v786h369v-702q0 -105 80 -119q26 -4 77 -4t150 35v790h367v-1079h-256q-47 0 -69 23t-34 98q-175 -137 -368 -137q-316 0 -316 309zM311 1440h355l69 -223v-68h-215l-209 203v88z" />
    <glyph glyph-name="uacute" unicode="&#xfa;" horiz-adv-x="1249" 
d="M100 293v786h369v-702q0 -105 80 -119q26 -4 77 -4t150 35v790h367v-1079h-256q-47 0 -69 23t-34 98q-175 -137 -368 -137q-316 0 -316 309zM520 1149v68l67 223h355v-88l-207 -203h-215z" />
    <glyph glyph-name="ucircumflex" unicode="&#xfb;" horiz-adv-x="1249" 
d="M100 293v786h369v-702q0 -105 80 -119q26 -4 77 -4t150 35v790h367v-1079h-256q-47 0 -69 23t-34 98q-175 -137 -368 -137q-316 0 -316 309zM932 1149h-199l-115 86l-112 -86h-191v78l187 213h247l183 -213v-78z" />
    <glyph glyph-name="udieresis" unicode="&#xfc;" horiz-adv-x="1249" 
d="M100 293v786h369v-702q0 -105 80 -119q26 -4 77 -4t150 35v790h367v-1079h-256q-47 0 -69 23t-34 98q-175 -137 -368 -137q-316 0 -316 309zM833 1147q-76 0 -124 46t-48 116t48 117t124 47q75 0 125 -47t50 -117q0 -71 -50 -117q-49 -45 -125 -45zM291 1193
q-49 46 -49 116t49 117t125 47q116 0 159 -99q13 -30 13 -66t-13 -64q-13 -30 -35 -52q-48 -46 -124 -45q-76 0 -125 46z" />
    <glyph glyph-name="yacute" unicode="&#xfd;" horiz-adv-x="1165" 
d="M31 1079h350l225 -612h6l209 612h316v-84l-525 -1327h-333v84l141 299l-389 944v84zM502 1149v68l67 223h355v-88l-207 -203h-215z" />
    <glyph glyph-name="thorn" unicode="&#xfe;" horiz-adv-x="1239" 
d="M823 537q0 232 -79.5 258t-137.5 26t-139 -35v-499q61 -43 153 -43q93 0 148 63.5t55 229.5zM788 1096q275 0 341.5 -192t66.5 -340q0 -282 -127 -422t-332 -140q-163 0 -270 80v-414h-369v1766h234q85 0 110 -36t25 -157v-268q135 123 321 123z" />
    <glyph glyph-name="ydieresis" unicode="&#xff;" horiz-adv-x="1165" 
d="M31 1079h350l225 -612h6l209 612h316v-84l-525 -1327h-333v84l141 299l-389 944v84zM815 1147q-76 0 -124 46t-48 116t48 117t124 47q75 0 125 -47t50 -117q0 -71 -50 -117q-49 -45 -125 -45zM273 1193q-49 46 -49 116t49 117t125 47q116 0 159 -99q13 -30 13 -66
t-13 -64q-13 -30 -35 -52q-48 -46 -124 -45q-76 0 -125 46z" />
    <glyph glyph-name="dotlessi" unicode="&#x131;" horiz-adv-x="569" 
d="M100 0v1079h238q82 0 105.5 -39t23.5 -168v-872h-367z" />
    <glyph glyph-name="Lslash" unicode="&#x141;" horiz-adv-x="1155" 
d="M137 0v455l-125 -45v252l125 45v727h393v-580l365 135v-252l-365 -135v-332h564v-270h-957z" />
    <glyph glyph-name="lslash" unicode="&#x142;" horiz-adv-x="608" 
d="M121 0v569l-115 -59v242l115 59v623h233q86 0 109.5 -35.5t23.5 -157.5v-235l121 63v-242l-121 -63v-764h-366z" />
    <glyph glyph-name="OE" unicode="&#x152;" horiz-adv-x="1982" 
d="M829 1165q-197 0 -286.5 -102t-89.5 -345t90 -346.5t286 -103.5h91v897h-91zM813 0q-760 0 -760 709q0 362 194.5 543.5t575.5 181.5h1071v-275h-583v-305h407v-258h-407v-330h604v-266h-1102z" />
    <glyph glyph-name="oe" unicode="&#x153;" horiz-adv-x="1913" 
d="M1366 870q-74 0 -119.5 -49t-58.5 -170h336q-6 174 -65 196.5t-93 22.5zM640.5 223q69.5 0 123 76t53.5 231q0 234 -78 273t-147 39t-123.5 -77.5t-54.5 -234.5q0 -231 78.5 -269t148 -38zM991 131q-145 -147 -387 -147t-402.5 149.5t-160.5 402.5t161 406.5t402 153.5
t391 -158q139 158 380 158t369 -134.5t128 -408.5l-4 -94h-682q19 -190 108.5 -210t145.5 -20q159 0 274 80h115v-219q-186 -106 -444 -106q-259 0 -394 147z" />
    <glyph glyph-name="Scaron" unicode="&#x160;" horiz-adv-x="1120" 
d="M600 1180q-209 0 -209 -133q0 -67 52 -97t182 -60q260 -61 360 -159t100 -297q1 -330 -323 -422q-106 -30 -248 -30q-276 0 -469 114v273h145q110 -115 322 -115t211 141q1 81 -77 119q-36 18 -87 30q-49 12 -129 34q-190 49 -287 147q-96 98 -96 301t147 315
q147 111 399 111q253 0 419 -96v-264h-142q-117 88 -270 88zM258 1763h199l115 -77l112 77h191v-77l-189 -205h-247l-181 205v77z" />
    <glyph glyph-name="scaron" unicode="&#x161;" horiz-adv-x="961" 
d="M365 772q0 -35 43 -54t139 -30q97 -12 167 -34t116 -60t69 -97t23 -145q0 -176 -120 -271t-352 -95t-399 86v241h125q56 -53 168 -73q38 -7 82 -7q160 0 160 78q0 44 -37 62t-136 32q-195 26 -284 99q-88 74 -88 242t123 258t331 90t365 -72v-238h-117q-98 66 -238 66
t-140 -78zM180 1440h199l115 -86l112 86h191v-78l-189 -213h-247l-181 213v78z" />
    <glyph glyph-name="Ydieresis" unicode="&#x178;" horiz-adv-x="1305" 
d="M467 0v532l-438 805v97h368l287 -560h4l277 560h311v-97l-416 -794v-543h-393zM888 1481q-76 0 -124 46q-48 45 -48 115t48 116t124 46t125 -45q50 -45 50 -117q0 -71 -50 -116q-49 -45 -125 -45zM346 1527q-49 45 -49 115t49 116t125 46q116 0 159 -96q13 -30 13 -66
t-13 -64q-14 -30 -36 -52q-48 -46 -123 -45q-76 0 -125 46z" />
    <glyph glyph-name="Zcaron" unicode="&#x17d;" horiz-adv-x="1171" 
d="M675 1161h-592v273h1014v-295l-637 -863v-8h637v-268h-1059v285l637 868v8zM301 1763h199l115 -77l112 77h191v-77l-189 -205h-247l-181 205v77z" />
    <glyph glyph-name="zcaron" unicode="&#x17e;" horiz-adv-x="1040" 
d="M78 825v254h903v-254l-508 -575h498v-250h-920v248l506 577h-479zM219 1440h199l115 -86l112 86h191v-78l-189 -213h-247l-181 213v78z" />
    <glyph glyph-name="florin" unicode="&#x192;" 
d="M1004 1217h-68q-62 0 -92.5 -20.5t-38.5 -80.5l-25 -207h197v-237h-225l-107 -877h-371l103 877h-141v237h170l28 228q38 321 381 321q113 0 189 -31v-210z" />
    <glyph glyph-name="circumflex" unicode="&#x2c6;" horiz-adv-x="815" 
d="M715 1149h-199l-115 86l-112 -86h-191v78l187 213h247l183 -213v-78z" />
    <glyph glyph-name="caron" unicode="&#x2c7;" horiz-adv-x="815" 
d="M98 1440h199l115 -86l112 86h191v-78l-189 -213h-247l-181 213v78z" />
    <glyph glyph-name="breve" unicode="&#x2d8;" horiz-adv-x="815" 
d="M705 1448v-82q-19 -94 -97 -155.5t-232 -61.5t-205 86t-60 131v82h211q7 -78 84 -78t88 78h211z" />
    <glyph glyph-name="dotaccent" unicode="&#x2d9;" horiz-adv-x="815" 
d="M408 1145q-81 0 -136 48.5t-55 122.5q0 75 54.5 125t136.5 50t136 -50t54 -125t-54.5 -123t-135.5 -48z" />
    <glyph glyph-name="ring" unicode="&#x2da;" horiz-adv-x="815" 
d="M408 1286q31 0 50 20t19 54t-19 54t-50 20t-49.5 -20t-18.5 -54t18.5 -54t49.5 -20zM408 1151q-92 0 -156 57.5t-64 151.5t64 151.5t156 57.5q91 0 155 -57.5t64 -151.5t-63.5 -151.5t-155.5 -57.5z" />
    <glyph glyph-name="ogonek" unicode="&#x2db;" horiz-adv-x="815" 
d="M440 -342q-108 0 -165.5 42.5t-57.5 115.5q0 107 139 184h209q-32 -28 -50.5 -50.5t-18.5 -51.5q0 -50 75 -50h37v-155q-60 -35 -168 -35z" />
    <glyph glyph-name="tilde" unicode="&#x2dc;" horiz-adv-x="815" 
d="M494 1397q46 0 63 49h184v-82q-17 -102 -72.5 -157.5t-129.5 -55.5t-147 26.5t-91 26.5q-53 0 -65 -53h-185v82q17 102 73 157.5t129 55.5t146.5 -24.5t94.5 -24.5z" />
    <glyph glyph-name="hungarumlaut" unicode="&#x2dd;" horiz-adv-x="815" 
d="M836 1440v-86l-156 -205h-193v57l66 234h283zM475 1440v-86l-158 -205h-190v57l66 234h282z" />
    <glyph glyph-name="endash" unicode="&#x2013;" horiz-adv-x="915" 
d="M78 713h758v-271h-758v271z" />
    <glyph glyph-name="emdash" unicode="&#x2014;" horiz-adv-x="1532" 
d="M78 713h1374v-273h-1374v273z" />
    <glyph glyph-name="quoteleft" unicode="&#x2018;" horiz-adv-x="473" 
d="M291 1210q0 -28 65.5 -59.5t65.5 -128.5q0 -67 -49.5 -110.5t-106.5 -43.5q-103 0 -159 54.5t-56 160.5q0 164 90.5 251.5t280.5 103.5v-150q-131 -17 -131 -78z" />
    <glyph glyph-name="quoteright" unicode="&#x2019;" horiz-adv-x="473" 
d="M182 1106q0 23 -16 34t-65.5 36.5t-49.5 119.5q0 67 49.5 110.5t107.5 43.5q101 0 157.5 -55t56.5 -160q0 -164 -90.5 -252t-280.5 -102v149q131 17 131 76z" />
    <glyph glyph-name="quotesinglbase" unicode="&#x201a;" horiz-adv-x="473" 
d="M182 8q0 22 -6.5 30.5t-16 15t-59 34t-49.5 125.5t69.5 122.5t107.5 24.5q82 0 138 -54.5t56 -160.5q0 -165 -90.5 -252.5t-280.5 -103.5v152q62 6 96.5 25.5t34.5 41.5z" />
    <glyph glyph-name="quotedblleft" unicode="&#x201c;" horiz-adv-x="913" 
d="M731 1210q0 -28 65.5 -59.5t65.5 -128.5q0 -67 -49.5 -110.5t-129.5 -43.5t-135.5 54.5t-55.5 160.5q0 163 90 251t278 104v-150q-129 -17 -129 -78zM291 1210q0 -28 65.5 -59.5t65.5 -128.5q0 -67 -49.5 -110.5t-106.5 -43.5q-103 0 -159 54.5t-56 160.5
q0 164 90.5 251.5t280.5 103.5v-150q-131 -17 -131 -78z" />
    <glyph glyph-name="quotedblright" unicode="&#x201d;" horiz-adv-x="913" 
d="M182 1106q0 23 -16 34t-65.5 36.5t-49.5 119.5q0 67 49.5 110.5t107.5 43.5q101 0 157.5 -55t56.5 -160q0 -164 -90.5 -252t-280.5 -102v149q131 17 131 76zM623 1106q0 24 -16.5 34.5t-65.5 35t-49 120.5q0 67 49 110.5t106 43.5q102 0 158.5 -55t56.5 -160
q0 -164 -90.5 -252t-279.5 -102v149q131 17 131 76z" />
    <glyph glyph-name="quotedblbase" unicode="&#x201e;" horiz-adv-x="913" 
d="M182 8q0 22 -6.5 30.5t-16 15t-59 34t-49.5 125.5t69.5 122.5t107.5 24.5q82 0 138 -54.5t56 -160.5q0 -165 -90.5 -252.5t-280.5 -103.5v152q62 6 96.5 25.5t34.5 41.5zM623 8q0 22 -6.5 30.5t-16.5 15t-59 33t-49 125.5t68 123.5t106 24.5q82 0 139 -54.5t57 -160.5
q0 -165 -90.5 -252.5t-279.5 -103.5v152q61 6 96 25.5t35 41.5z" />
    <glyph glyph-name="dagger" unicode="&#x2020;" horiz-adv-x="981" 
d="M43 786v334h119l223 -76l-68 203v187h347v-187l-68 -200l223 73h119v-334h-119l-223 74l78 -213v-135l-58 -612h-251l-58 610v133l78 215l-223 -72h-119z" />
    <glyph glyph-name="daggerdbl" unicode="&#x2021;" horiz-adv-x="981" 
d="M43 199v333h119l225 -73l-80 147v117l78 149l-223 -71h-119v334h119l223 -78l-68 205v172h347v-172l-68 -203l223 76h119v-334h-119l-225 73l80 -147v-117l-78 -149l223 71h119v-333h-119l-223 77l68 -204v-172h-347v172l68 202l-223 -75h-119z" />
    <glyph glyph-name="bullet" unicode="&#x2022;" horiz-adv-x="731" 
d="M368 274q-131 0 -219 80.5t-88 217t88 218.5t219 82q130 0 216 -82t86 -218.5t-85.5 -217t-216.5 -80.5z" />
    <glyph glyph-name="ellipsis" unicode="&#x2026;" horiz-adv-x="1473" 
d="M1234 -14q-40 0 -75 14.5t-61.5 39.5t-41.5 59t-15 73t15 73t41.5 59t61.5 39.5t75 14.5t75 -14.5t61 -39.5t41 -59t15 -73t-15 -73t-41 -59t-61 -39.5t-75 -14.5zM544 172q0 78 55.5 132t135.5 54q81 0 137.5 -54.5t56.5 -131.5t-56.5 -131.5t-137.5 -54.5
q-80 0 -135.5 54t-55.5 132zM240 -14q-40 0 -75 14.5t-61.5 39.5t-41.5 59t-15 73t15 73t41.5 59t61.5 39.5t75 14.5t75 -14.5t61 -39.5t41 -59t15 -73t-15 -73t-41 -59t-61 -39.5t-75 -14.5z" />
    <glyph glyph-name="perthousand" unicode="&#x2030;" horiz-adv-x="2458" 
d="M1803.5 654.5q101.5 99.5 248.5 99.5t248.5 -99.5t101.5 -284t-102 -286.5t-248 -102t-248 102t-102 286.5t101.5 284zM2052 563q-102 -1 -102 -197t102 -196t102 196t-102 197zM1025.5 654.5q101.5 99.5 248.5 99.5t248.5 -99.5t101.5 -284t-102 -286.5t-248 -102
t-248 102t-102 286.5t101.5 284zM1171 366q1 -196 103 -196t102 196t-102 197q-102 -1 -103 -197zM1223 1493h237l-1009 -1563h-238zM156.5 1352.5q101.5 99.5 249.5 99.5t249 -99.5t101 -284.5t-101 -285.5t-249 -100.5q-147 0 -249 100.5t-102 285.5t101.5 284.5z
M303 1065q1 -197 103 -197t102 197t-102 197t-103 -197z" />
    <glyph glyph-name="guilsinglleft" unicode="&#x2039;" horiz-adv-x="633" 
d="M569 983v-74l-215 -372v-5l215 -376v-74h-274l-232 385v129l232 387h274z" />
    <glyph glyph-name="guilsinglright" unicode="&#x203a;" horiz-adv-x="633" 
d="M63 82v74l216 376v5l-216 372v74h275l231 -387v-129l-231 -385h-275z" />
    <glyph glyph-name="fraction" unicode="&#x2044;" horiz-adv-x="459" 
d="M-156 -70h-237l1009 1563h238z" />
    <glyph glyph-name="Euro" unicode="&#x20ac;" 
d="M41 477v191h92v42q0 43 2 54h-94v190h119q53 244 216 371t408 127q178 0 253 -32.5t114 -53.5v-266h-145q-92 74 -204 74q-111 0 -170 -54.5t-87 -165.5h340l-35 -190h-328v-96h309l-34 -191h-254q36 -171 111.5 -195t129.5 -24q150 0 248 98h129v-247
q-165 -127 -407 -127q-361 0 -465.5 185t-130.5 310h-117z" />
    <glyph glyph-name="trademark" unicode="&#x2122;" horiz-adv-x="1450" 
d="M647 1434h281l82 -285h2l84 285h282v-574h-194v395h-2l-119 -395h-135l-117 395h-2v-395h-162v574zM211 860v428h-158v146h516v-146h-159v-428h-199z" />
    <glyph glyph-name="minus" unicode="&#x2212;" 
d="M119 565v285h995v-285h-995z" />
    <glyph glyph-name="fi" unicode="&#xfb01;" horiz-adv-x="1264" 
d="M506 1458q111 0 186 -28v-207h-57q-62 0 -93.5 -18t-31.5 -75v-51h182v-237h-182v-842h-369v842h-116v237h116v66q0 313 365 313zM978 1145q-81 0 -135.5 48.5t-54.5 122.5q0 75 54 125t136 50t136.5 -50t54.5 -125t-55 -123t-136 -48zM795 0v1079h237q82 0 105.5 -39
t23.5 -168v-872h-366z" />
    <glyph glyph-name="fl" unicode="&#xfb02;" horiz-adv-x="1262" 
d="M795 0v1434h233q86 0 109.5 -35.5t23.5 -157.5v-1241h-366zM506 1458q111 0 186 -28v-207h-57q-62 0 -93.5 -18t-31.5 -75v-51h182v-237h-182v-842h-369v842h-116v237h116v66q0 313 365 313z" />
    <glyph glyph-name="grave.cap" horiz-adv-x="815" 
d="M102 1757h355l69 -209v-67h-215l-209 190v86z" />
    <glyph glyph-name="dieresis.cap" horiz-adv-x="815" 
d="M616 1481q-76 0 -124 45.5t-48 115.5t48 116t124 46t125.5 -46t49.5 -116q0 -71 -49.5 -116t-125.5 -45zM74 1526.5q-49 45.5 -49 115.5t49 116t125 46q116 0 144 -63t28 -99t-13 -65t-48 -62.5t-111 -33.5t-125 45.5z" />
    <glyph glyph-name="macron.cap" horiz-adv-x="815" 
d="M690 1501h-565v223h565v-223z" />
    <glyph glyph-name="acute.cap" horiz-adv-x="815" 
d="M713 1757v-86l-207 -190h-215v67l67 209h355z" />
    <glyph glyph-name="circumflex.cap" horiz-adv-x="815" 
d="M715 1481h-199l-115 78l-112 -78h-191v78l187 204h247l183 -204v-78z" />
    <glyph glyph-name="caron.cap" horiz-adv-x="815" 
d="M98 1763h199l115 -77l112 77h191v-77l-189 -205h-247l-181 205v77z" />
    <glyph glyph-name="breve.cap" horiz-adv-x="815" 
d="M408 1700q73 0 86 63h211v-80q-19 -86 -98 -144t-200 -58t-199 56.5t-97 145.5v80h211q3 -24 22.5 -43.5t63.5 -19.5z" />
    <glyph glyph-name="dotaccent.cap" horiz-adv-x="815" 
d="M408 1481q-81 0 -136 48.5t-55 122.5q0 75 54.5 125t136.5 50t136 -50t54 -125t-54.5 -123t-135.5 -48z" />
    <glyph glyph-name="ring.cap" horiz-adv-x="815" 
d="M408 1616q31 0 50 20t19 54t-19 54t-50 20t-49.5 -20t-18.5 -54t18.5 -54t49.5 -20zM408 1481q-92 0 -156 57.5t-64 151.5t64 151.5t156 57.5q91 0 155 -57.5t64 -151.5t-63.5 -151.5t-155.5 -57.5z" />
    <glyph glyph-name="tilde.cap" horiz-adv-x="815" 
d="M494 1724q46 0 63 50h184v-82q-17 -103 -72.5 -157t-129.5 -54t-147 26.5t-91 26.5q-53 0 -65 -53h-185v82q17 102 73 156.5t130 54.5t147.5 -25t92.5 -25z" />
    <glyph glyph-name="hungarumlaut.cap" horiz-adv-x="815" 
d="M840 1757v-86l-154 -190h-199v59l64 217h289zM473 1757v-86l-156 -190h-196v59l63 217h289z" />
    </font>
</defs>
</svg>
